<svg id="Layer_1" data-name="Layer 1" xmlns="http://www.w3.org/2000/svg" viewBox="0 0 412.51 384"><defs><style>.cls-1{fill:#f8c201;}.cls-2{fill:#fbe15c;}.cls-3{fill:#f8c202;}.cls-4{fill:#d3a806;}.cls-5{fill:#7e8c92;}.cls-6{fill:#7d8b93;}.cls-7{fill:#7d8b95;}.cls-8{fill:#7d8c95;}.cls-9{fill:#495b62;}.cls-10{fill:#485a62;}.cls-11{fill:#7c8b95;}.cls-12{fill:#7d8b94;}.cls-13{fill:#485b61;}.cls-14{fill:none;}</style></defs><path class="cls-1" d="M91.1,291.16c1.29-1.77,1.19-3.94,1.66-5.94,6.31-26.55,30.22-46.32,57.52-46.47,53-.3,105.93-.1,158.89-.08a50.88,50.88,0,0,1,15.42,2.49c2.26,8.1,2.31,16.38,2.26,24.7-.1,19.41,0,38.81,0,58.22-22.81,0-45.62,0-68.43.09a64.52,64.52,0,0,0-10.76.84c-28.22,4.94-49,27.75-51.13,56l-85.78,0a69.37,69.37,0,0,1-8.13-.54c-2.83-.34-5.58-1.93-8.55-.93-1.64-3.05-1.14-6.75-2.94-9.75Zm59.09,16.47a8.37,8.37,0,0,0-8.66-8.36,8.47,8.47,0,0,0-8.43,8.64,8.55,8.55,0,0,0,17.09-.28Zm43,8.41a8.39,8.39,0,1,0-8.5-8.51A8.35,8.35,0,0,0,193.17,316Zm-34.06-8.38a8.35,8.35,0,0,0,8.48,8.53,8.55,8.55,0,0,0,8.45-8.67,8.34,8.34,0,0,0-8.38-8.24A8.17,8.17,0,0,0,159.11,307.66Z" transform="translate(-91.1 -166.26)"/><path class="cls-2" d="M196.5,381c2.12-28.21,22.91-51,51.13-56a64.52,64.52,0,0,1,10.76-.84c22.81-.09,45.62-.07,68.43-.09l41.44,0c14.91,0,29.82,0,44.72.2a52.5,52.5,0,0,1,17.85,2.84c.88,5.5,2.25,10.93,2.24,16.56,0,21.19,0,42.39,0,63.58a51.49,51.49,0,0,1-3.61,18.93c-10.08,25.49-29.12,39.25-56.33,40.62-17.16.87-34.4.1-51.6.06,10.87-5.42,17.6-13.92,19.41-26.08,5.45-3,7.8-7.62,7.6-13.8-.17-5.58-.21-11.18,0-16.75.25-6.33-2.14-11-7.6-14.21a35.09,35.09,0,0,0-1.1-8.48c-4.86-23.74-27-42.48-53.91-41.2-25,1.19-47.19,22-48.93,46.88a5.12,5.12,0,0,1-2.39,4.26c-2.82,2-5,4.73-5.06,8.33-.2,8.46-.41,16.93.11,25.39a12.57,12.57,0,0,0,13.15,10.67,13.18,13.18,0,0,0,12.75-13.09c.2-6-.12-12,.09-17.95.23-6.41-2-11.39-7.54-14.78,2.11-25.27,23.89-42,48.79-37.53,16.62,3,31.36,19,32.26,34.83.11,1.88-.15,3.22-1.89,4.41a10.47,10.47,0,0,0-4.84,8.46c-.18,8.33,0,16.67.1,25,.51,4.39,3.39,7.1,6.74,9.47-1.7,8.63-7.14,13.83-15.23,16.62-1.7-1.05-2.93-2.89-5.17-3-10.75-4.42-20.11,1.62-19.31,12.45-1.61.08-3.23.22-4.84.22-21.79,0-43.58,0-65.37,0a84.12,84.12,0,0,1-16.61-1.79c-1.23-.24-2.41-.85-3.37.48a58.11,58.11,0,0,1-2.86-18.88c.09-8.17,0-16.33.05-24.5ZM392,367.34c-7.34,0-14.67,0-22,0-4.36,0-6.45,1.81-6.53,5.41s2.29,5.88,6.58,5.89q21.83.06,43.64,0c4,0,6.57-2.23,6.66-5.53s-2.54-5.75-6.7-5.77C406.37,367.31,399.16,367.34,392,367.34Zm-5,25.52c-5.48,0-11,0-16.46,0-4.7,0-7.11,2-7,5.76,0,3.59,2.43,5.55,6.89,5.56q16.27,0,32.54,0c4.32,0,6.94-2.15,7-5.57s-2.57-5.69-6.82-5.73C397.64,392.83,392.28,392.86,386.92,392.86Z" transform="translate(-91.1 -166.26)"/><path class="cls-3" d="M199.37,465.66c1-1.33,2.14-.72,3.37-.48A84.12,84.12,0,0,0,219.35,467c21.79-.06,43.58,0,65.37,0,1.61,0,3.23-.14,4.84-.21a2.84,2.84,0,0,0,.56.19c4.69,8.86,16.9,9.62,24.7,1.55l6.69-1.64c17.2,0,34.44.81,51.6-.06,27.21-1.37,46.25-15.13,56.33-40.62a51.49,51.49,0,0,0,3.61-18.93c0-21.19,0-42.39,0-63.58,0-5.63-1.36-11.06-2.24-16.56,18.55,5.43,31.19,17.5,38.82,35a57.08,57.08,0,0,1,4.6,23.25c-.06,20.57.12,41.14-.06,61.71-.19,21.63-9.52,38.59-27.32,50.73-4.08,2.78-5.78,5.91-5.67,10.81.26,11.71.05,23.44.11,35.15,0,2.65-.17,5.14-3,6.21s-4.68-.55-6.54-2.42c-11.86-11.94-23.83-23.78-35.65-35.76a11.55,11.55,0,0,0-8.92-3.69c-43.63.08-87.27.18-130.9,0-25.11-.12-47.82-16.63-56.28-40.23C199.77,467.1,199.59,466.38,199.37,465.66Z" transform="translate(-91.1 -166.26)"/><path class="cls-4" d="M196.5,381l.06,41.31c-8.23,0-16.45,0-24.68-.08-3.49,0-6.13,1.44-8.54,3.88-9.64,9.75-19.39,19.39-29.05,29.13-1.93,2-3.89,3.72-6.81,2.56s-2.78-3.75-2.76-6.32c0-9.35-.15-18.7.09-28.05.12-5-1.63-8.29-5.92-11.07-12.21-7.88-20.81-18.7-24.85-32.86,3-1,5.72.59,8.55.93a69.37,69.37,0,0,0,8.13.54Z" transform="translate(-91.1 -166.26)"/><path class="cls-4" d="M368.26,324l-41.44,0c0-19.41-.07-38.81,0-58.22,0-8.32,0-16.6-2.26-24.7,23.37,7.43,37.54,23.34,42.52,47.16C369.57,300.07,367.86,312.13,368.26,324Z" transform="translate(-91.1 -166.26)"/><path class="cls-5" d="M150.19,307.63a8.55,8.55,0,0,1-17.09.28,8.47,8.47,0,0,1,8.43-8.64A8.37,8.37,0,0,1,150.19,307.63Z" transform="translate(-91.1 -166.26)"/><path class="cls-5" d="M193.17,316a8.39,8.39,0,1,1,.26-16.77,8.39,8.39,0,1,1-.26,16.77Z" transform="translate(-91.1 -166.26)"/><path class="cls-6" d="M159.11,307.66a8.17,8.17,0,0,1,8.55-8.38,8.34,8.34,0,0,1,8.38,8.24,8.55,8.55,0,0,1-8.45,8.67A8.35,8.35,0,0,1,159.11,307.66Z" transform="translate(-91.1 -166.26)"/><path class="cls-7" d="M229.66,431.17c-.52-8.46-.31-16.93-.11-25.39.08-3.6,2.24-6.32,5.06-8.33a5.12,5.12,0,0,0,2.39-4.26c1.74-24.9,24-45.69,48.93-46.88,26.92-1.28,49.05,17.46,53.91,41.2a35.09,35.09,0,0,1,1.1,8.48c-2-.36-3.07.16-2.94,2.47.15,2.48,0,5,0,7.46q0,5.58,0,11.18c0,9.55-4.74,13.84-15.5,14.1-.06-8.34-.28-16.68-.1-25a10.47,10.47,0,0,1,4.84-8.46c1.74-1.19,2-2.53,1.89-4.41-.9-15.87-15.64-31.83-32.26-34.83C272,354,250.22,370.75,248.11,396c-2-.41-3,.18-2.94,2.47.12,5.6.05,11.21,0,16.82C245.2,426.11,240.39,431,229.66,431.17Z" transform="translate(-91.1 -166.26)"/><path class="cls-8" d="M392,367.34c7.21,0,14.42,0,21.64,0,4.16,0,6.8,2.35,6.7,5.77s-2.66,5.52-6.66,5.53q-21.81.06-43.64,0c-4.29,0-6.67-2.25-6.58-5.89s2.17-5.38,6.53-5.41C377.28,367.31,384.61,367.34,392,367.34Z" transform="translate(-91.1 -166.26)"/><path class="cls-9" d="M229.66,431.17c10.73-.15,15.54-5.06,15.55-15.86,0-5.61.08-11.22,0-16.82,0-2.29.93-2.88,2.94-2.47,5.53,3.39,7.77,8.37,7.54,14.78-.21,6,.11,12-.09,17.95a13.18,13.18,0,0,1-12.75,13.09A12.57,12.57,0,0,1,229.66,431.17Z" transform="translate(-91.1 -166.26)"/><path class="cls-10" d="M322.53,431.2c10.76-.26,15.49-4.55,15.5-14.1q0-5.6,0-11.18c0-2.49.11-5,0-7.46-.13-2.31,1-2.83,2.94-2.47,5.46,3.17,7.85,7.88,7.6,14.21-.23,5.57-.19,11.17,0,16.75.2,6.18-2.15,10.8-7.6,13.8a18.64,18.64,0,0,1-11.65-.08C325.92,438.3,323,435.59,322.53,431.2Z" transform="translate(-91.1 -166.26)"/><path class="cls-11" d="M386.92,392.86c5.36,0,10.72,0,16.09,0,4.25,0,6.88,2.3,6.82,5.73s-2.67,5.56-7,5.57q-16.27,0-32.54,0c-4.46,0-6.84-2-6.89-5.56-.06-3.74,2.35-5.73,7-5.76C376,392.84,381.44,392.86,386.92,392.86Z" transform="translate(-91.1 -166.26)"/><path class="cls-12" d="M329.27,440.67a18.64,18.64,0,0,0,11.65.08c-1.81,12.16-8.54,20.66-19.41,26.08l-6.69,1.64c2.22-3.9,1.47-7.59-.78-11.18C322.13,454.5,327.57,449.3,329.27,440.67Z" transform="translate(-91.1 -166.26)"/><path class="cls-13" d="M314,457.29c2.25,3.59,3,7.28.78,11.18-7.8,8.07-20,7.31-24.7-1.55,1.08-1.17,2.25-.41,3.42-.18,8.35,1.61,15.3-4.06,15.33-12.47C311.11,454.4,312.34,456.24,314,457.29Z" transform="translate(-91.1 -166.26)"/><path class="cls-12" d="M308.87,454.27c0,8.41-7,14.08-15.33,12.47-1.17-.23-2.34-1-3.42.18a2.84,2.84,0,0,1-.56-.19C288.76,455.89,298.12,449.85,308.87,454.27Z" transform="translate(-91.1 -166.26)"/><rect class="cls-14" x="28.51" width="384" height="384"/></svg>