<svg id="Layer_11" data-name="Layer 11" xmlns="http://www.w3.org/2000/svg" viewBox="0 0 35.38 35.38"><defs><style>.cls-1{fill:#fff;}.cls-2{fill:#010101;}</style></defs><path class="cls-1" d="M499.67,230.43a17.69,17.69,0,1,0-20.46,17.47V235.54h-4.49v-5.11h4.49v-3.9c0-4.44,2.65-6.88,6.69-6.88a27.74,27.74,0,0,1,4,.34v4.35h-2.23a2.57,2.57,0,0,0-2.89,2.77v3.32h4.91l-.79,5.11h-4.12V247.9A17.69,17.69,0,0,0,499.67,230.43Z" transform="translate(-464.29 -212.73)"/><path class="cls-2" d="M488.86,235.54l.79-5.11h-4.91v-3.32a2.57,2.57,0,0,1,2.89-2.77h2.23V220a27.74,27.74,0,0,0-4-.34c-4,0-6.69,2.44-6.69,6.88v3.9h-4.49v5.11h4.49V247.9a18.16,18.16,0,0,0,2.77.22,17.93,17.93,0,0,0,2.76-.22V235.54Z" transform="translate(-464.29 -212.73)"/></svg>