<?xml version="1.0" encoding="utf-8"?>
<!-- Generator: Adobe Illustrator 24.2.0, SVG Export Plug-In . SVG Version: 6.00 Build 0)  -->
<svg version="1.1" id="Layer_1" xmlns="http://www.w3.org/2000/svg" xmlns:xlink="http://www.w3.org/1999/xlink" x="0px" y="0px"
	 viewBox="0 0 512 512" style="enable-background:new 0 0 512 512;" xml:space="preserve">
<style type="text/css">
	.st0{fill:#5A5A5A;}
	.st1{fill:#FFFFFF;}
</style>
<path class="st0" d="M0,474c2.4-7.6,7.8-10,15.3-9.7c6.1,0.3,12.2,0.1,18.9,0.1c0-2.9,0-5.2,0-7.4c0-127.5,0-255,0-382.5
	c0-19,7.3-34.2,24.8-42.8c6-3,13.4-4.4,20.2-4.5c65.5-0.3,131-0.3,196.5-0.1c26.9,0.1,45.1,18.9,45.1,46.1c0.1,63.5,0,127,0,190.5
	c0,2.3,0,4.6,0,7.7c5.8,0,11.1-0.1,16.3,0c20.9,0.6,37.1,9.5,46.1,28.6c3.2,6.9,4.5,14.9,5.2,22.6c0.9,9.1,0.2,18.3,0.2,27.5
	c0.1,21.1,15.7,37.2,35.7,37.1c19.8-0.1,35.6-16.1,35.7-36.8c0.2-34.7,0.1-69.3,0.1-104c0-13.6,0-27.3,0-42
	c-16.2,9.3-32,10.8-47.7,1.3c-8.9-5.3-15-13.1-18.1-23c-3.9-12.2-2.5-24,4-35.1c6.5-11.1,16.6-17.4,30-20.5
	c-22-25.1-43.4-49.6-65.1-74.3c5.3-4.6,10.2-9,15.5-13.6c7,8,13.8,15.7,20.6,23.5c20.6,23.4,40.9,47,61.7,70.2
	c13.4,15,19.9,32.2,19.8,52.3c-0.2,55.3,0,110.7-0.1,166c0,26.9-17.9,49.1-44,55.3c-34,8-67.6-17.8-68.6-52.8
	c-0.3-11.5,0.5-23.1-0.6-34.5c-1.6-16.7-13-26.5-29.7-27.1c-4.2-0.2-8.3,0.1-12.5-0.1c-3.1-0.1-4.5,0.9-4.5,4.3
	c0.1,55,0.1,110,0.1,165c0,0.8,0.2,1.6,0.4,2.9c2.2,0.1,4.3,0.3,6.4,0.3c56.2,0,112.3,0.1,168.5-0.1c7.6,0,13.4,1.8,15.8,9.7
	c0,0.7,0,1.3,0,2c-2.5,7.2-7.7,9.1-15.1,9.1c-160.6-0.2-321.2-0.2-481.8,0c-7.4,0-12.6-1.9-15.1-9.1C0,475.3,0,474.7,0,474z
	 M300.3,464.4c0-2.4,0-3.9,0-5.4c0-128.7,0-257.3,0-386c0-15.7-9.5-25.3-25.1-25.3c-65,0-130,0-195,0c-2.8,0-5.7,0.1-8.4,0.9
	c-11,3.1-17,12.2-17,25.8c0,127.8,0,255.6,0,383.5c0,6.5,0,6.5,6.4,6.5c77.5,0,155,0,232.5,0C295.7,464.4,297.7,464.4,300.3,464.4z
	 M434.9,191.2c11.9,0,22-10,22-21.9c0.1-11.8-10-21.9-21.9-22.1c-12-0.2-22.3,10.1-22.2,22.2C412.9,181.4,422.9,191.2,434.9,191.2z"
	/>
<path class="st1" d="M0,476c2.5,7.2,7.7,9.1,15.1,9.1c160.6-0.2,321.2-0.2,481.8,0c7.4,0,12.6-1.9,15.1-9.1c0,3.3,0,6.7,0,10
	c-170.7,0-341.3,0-512,0C0,482.7,0,479.3,0,476z"/>
<path class="st0" d="M179.1,225.7c-30.2,0-60.3,0-90.5,0c-10.9,0-14.5-3.5-14.5-14.2c0-39.5,0-79,0-118.5c0-10.1,3.7-13.8,13.9-13.8
	c60.8,0,121.6,0,182.5,0c10.3,0,14.2,3.9,14.2,14.2c0,39.3,0,78.6,0,118c0,10.5-3.9,14.3-14.6,14.3
	C239.7,225.7,209.4,225.7,179.1,225.7z M179.1,99.9c-26.2,0-52.3,0.1-78.5-0.1c-4.9,0-6.1,1.5-6,6.2c0.2,31.2,0.2,62.3,0,93.5
	c0,4.4,1.1,5.7,5.6,5.7c52.6-0.1,105.3-0.1,157.9,0c4.6,0,6-1.3,6-5.9c-0.2-31.2-0.2-62.3,0-93.5c0-4.7-1.5-5.9-6-5.9
	C231.8,100,205.5,99.9,179.1,99.9z"/>
</svg>
