<svg xmlns="http://www.w3.org/2000/svg" viewBox="0 0 35.38 35.38"><defs><style>.cls-1{fill:#fff;}</style></defs><g id="Layer_2" data-name="Layer 2"><g id="Layer_11" data-name="Layer 11"><circle class="cls-1" cx="17.69" cy="17.69" r="17.69"/><path d="M12.81,9.92a1.84,1.84,0,0,1-2,1.95A1.88,1.88,0,0,1,8.91,10a2,2,0,0,1,1.95-2A1.9,1.9,0,0,1,12.81,9.92Z"/><rect x="8.91" y="12.84" width="3.9" height="12.68"/><path d="M22.18,13a4.28,4.28,0,0,0-3.71,2h-.1l-.19-1.66H14.67c0,1.08.1,2.34.1,3.81v8.38h3.9V18.6a3.3,3.3,0,0,1,.09-1c.3-.68.78-1.56,1.86-1.56,1.36,0,1.95,1.17,1.95,2.73v6.73h3.9V18.31C26.47,14.7,24.61,13,22.18,13Z"/></g></g></svg>