<svg id="Layer_1" data-name="Layer 1" xmlns="http://www.w3.org/2000/svg" viewBox="0 0 348.23 225.14"><defs><style>.cls-1{fill:#bcbec0;}</style></defs><path d="M79.06,73.94a22.69,22.69,0,0,1-2,10.12,13.12,13.12,0,0,1-6.43,6A36.52,36.52,0,0,1,59,93q-7.2.73-17.66.74Q32.54,93.69,25,93a55.1,55.1,0,0,1-13.12-2.74,20.43,20.43,0,0,1-8.7-5.59A13.63,13.63,0,0,1,0,75.3V21.37A25.31,25.31,0,0,1,2,10.62,13.8,13.8,0,0,1,8.89,4.1,42,42,0,0,1,22.26.87,212.62,212.62,0,0,1,43.51,0,141,141,0,0,1,60.72.87,39.69,39.69,0,0,1,71.63,3.54a12.52,12.52,0,0,1,5.74,4.54,11.75,11.75,0,0,1,1.69,6.33V29.7H51.83V25.6A8.58,8.58,0,0,0,51.14,22a10.16,10.16,0,0,0-2.08-2.85L29.63,11.73V78a6,6,0,0,0,3,5c2,1.37,4.94,2.05,8.89,2.05a14.19,14.19,0,0,0,7.57-1.74A5.88,5.88,0,0,0,51.83,78V61.51H79.06Z"/><path d="M145.15,92.43l-.63-3.66A10.8,10.8,0,0,0,143.13,85a15.29,15.29,0,0,0-2.65-3.16L116.9,61.16,111,92.43H82.1L103,0h50.06L173.9,92.43ZM128.41,10.59,117.15,57h21.94Z"/><path d="M234.7,92.43a12.21,12.21,0,0,1-2.65-4.92,26.35,26.35,0,0,1-.75-6.8V74.15c0-4-2.15-7.78-6.43-11.22l-18.66-16V92.43H177.83V0h38.59a180.62,180.62,0,0,1,21.81,1.07q8.45,1.08,13.25,3.47A13.28,13.28,0,0,1,258,10.91a24,24,0,0,1,1.77,9.77v9.2A19.24,19.24,0,0,1,258.09,38a21.34,21.34,0,0,1-4.66,6.56,22.27,22.27,0,0,1-6.87,4.47,23.15,23.15,0,0,1-8.45,1.77q11.85,1,16.77,4.92a12.18,12.18,0,0,1,4.92,10v15a21.61,21.61,0,0,0,3.4,11.72Zm-3.4-64.81a7.84,7.84,0,0,0-3.41-6.18C223,17.83,206.2,10.59,206.2,10.59V44.26H215a46.75,46.75,0,0,0,8.07-.57,13,13,0,0,0,5-1.82,6.42,6.42,0,0,0,2.52-3.35,15.53,15.53,0,0,0,.7-5Z"/><path d="M28.68,197.1V166L.05,104.67h28l12.49,27.74-1,29.26,24.91-57H91.18L63.06,166V197.1Z"/><path d="M268.9,197.1V104.67h40.74a119.83,119.83,0,0,1,18.41,1.19A24.72,24.72,0,0,1,340,110.72a20,20,0,0,1,6.37,10.34q1.89,6.68,1.89,17.53v24a80.92,80.92,0,0,1-1.33,15.88,20.72,20.72,0,0,1-5.42,10.73q-4.1,4.16-11.73,6.05c-5.09,1.26-11.78,1.89-20.11,1.89Zm50.83-65.57q0-4.42-2.52-6.69l-19.93-10.65v69.54H304q15.75,0,15.76-7.31Z"/><path d="M145.17,197.1l-.63-3.66a10.47,10.47,0,0,0-1.39-3.78,15.19,15.19,0,0,0-2.64-3.15l-23.59-20.68L111,197.1H82.12l20.94-92.43h50.06l20.8,92.43Zm-16.74-81.85-11.25,46.42h21.94Z"/><path d="M234.7,197.1a12.27,12.27,0,0,1-2.65-4.92,26.48,26.48,0,0,1-.75-6.81v-6.56q0-6-6.43-11.22l-18.66-16V197.1H177.83V104.67h38.59a178.57,178.57,0,0,1,21.81,1.07q8.45,1.07,13.25,3.46a13.28,13.28,0,0,1,6.55,6.37,24,24,0,0,1,1.77,9.77v9.21a19.2,19.2,0,0,1-1.71,8.13,21.22,21.22,0,0,1-4.66,6.56,22.3,22.3,0,0,1-6.87,4.48,23.35,23.35,0,0,1-8.45,1.76c7.9.68,13.49,2.31,16.77,4.93a12.16,12.16,0,0,1,4.92,10v15a21.65,21.65,0,0,0,3.4,11.73Zm-3.4-64.82a7.84,7.84,0,0,0-3.41-6.18c-4.87-3.6-21.69-10.85-21.69-10.85v33.68H215a46.75,46.75,0,0,0,8.07-.57,12.79,12.79,0,0,0,5-1.83,6.4,6.4,0,0,0,2.52-3.34,15.62,15.62,0,0,0,.7-5Z"/><path class="cls-1" d="M39,217.19V213.7h9v8.24a11.31,11.31,0,0,1-3.8,2.23,13.71,13.71,0,0,1-5,1,11.36,11.36,0,0,1-5.65-1.36,8.71,8.71,0,0,1-3.63-3.89,12.59,12.59,0,0,1-1.21-5.51A12,12,0,0,1,30,208.64a9.23,9.23,0,0,1,4-3.85,10.73,10.73,0,0,1,4.94-1,9.88,9.88,0,0,1,6,1.62,7.25,7.25,0,0,1,2.78,4.46l-4.14.77a4.37,4.37,0,0,0-1.65-2.4,4.93,4.93,0,0,0-3-.88,5.69,5.69,0,0,0-4.35,1.73,7.36,7.36,0,0,0-1.61,5.15,8.11,8.11,0,0,0,1.64,5.52,5.43,5.43,0,0,0,4.28,1.84,7.23,7.23,0,0,0,2.63-.51,9.16,9.16,0,0,0,2.26-1.25v-2.62Z"/><path class="cls-1" d="M72.72,217.09a8.06,8.06,0,0,1,1-3.82,6.63,6.63,0,0,1,2.75-2.82,8.19,8.19,0,0,1,4-1A7.5,7.5,0,0,1,86,211.68a7.61,7.61,0,0,1,2.17,5.58A7.72,7.72,0,0,1,86,222.89a7.43,7.43,0,0,1-5.52,2.23,8.67,8.67,0,0,1-3.93-.93,6.39,6.39,0,0,1-2.84-2.72A9.09,9.09,0,0,1,72.72,217.09Zm4,.21a5,5,0,0,0,1.06,3.41,3.38,3.38,0,0,0,2.61,1.19,3.33,3.33,0,0,0,2.6-1.19,5,5,0,0,0,1-3.44,4.92,4.92,0,0,0-1-3.38,3.33,3.33,0,0,0-2.6-1.19,3.38,3.38,0,0,0-2.61,1.19A5,5,0,0,0,76.77,217.3Z"/><path class="cls-1" d="M113.13,224.79V204.11h4v20.68Z"/><path class="cls-1" d="M156.75,224.79h-3.69v-2.2a6,6,0,0,1-2.16,1.91A5.63,5.63,0,0,1,144,223a8.48,8.48,0,0,1-1.84-5.8,8.35,8.35,0,0,1,1.79-5.78,5.84,5.84,0,0,1,4.53-2,5.61,5.61,0,0,1,4.34,2.09v-7.45h4ZM146.17,217a6.85,6.85,0,0,0,.66,3.46,3,3,0,0,0,2.68,1.55,2.91,2.91,0,0,0,2.33-1.16,5.36,5.36,0,0,0,1-3.47,5.88,5.88,0,0,0-.93-3.72,2.94,2.94,0,0,0-2.39-1.13,3,3,0,0,0-2.36,1.11A5.12,5.12,0,0,0,146.17,217Z"/><path class="cls-1" d="M195.77,217.19l4,1.28a9.13,9.13,0,0,1-3.09,5,9.75,9.75,0,0,1-12.26-1.17,10.77,10.77,0,0,1-2.65-7.7c0-3.44.88-6.11,2.66-8a9.12,9.12,0,0,1,7-2.86,8.57,8.57,0,0,1,6.16,2.25,8.14,8.14,0,0,1,2.12,3.8l-4.14,1a4.27,4.27,0,0,0-4.35-3.47,4.7,4.7,0,0,0-3.73,1.65c-1,1.1-1.43,2.88-1.43,5.34q0,3.93,1.41,5.59a4.57,4.57,0,0,0,3.66,1.66,4.18,4.18,0,0,0,2.87-1.06A6.19,6.19,0,0,0,195.77,217.19Z"/><path class="cls-1" d="M224.31,217.09a8.06,8.06,0,0,1,1-3.82,6.59,6.59,0,0,1,2.76-2.82,8.15,8.15,0,0,1,4-1,7.5,7.5,0,0,1,5.57,2.21,7.61,7.61,0,0,1,2.17,5.58,7.72,7.72,0,0,1-2.19,5.63,7.4,7.4,0,0,1-5.52,2.23,8.73,8.73,0,0,1-3.93-.93,6.39,6.39,0,0,1-2.84-2.72A9.09,9.09,0,0,1,224.31,217.09Zm4.06.21a4.94,4.94,0,0,0,1.06,3.41,3.45,3.45,0,0,0,5.21,0,5,5,0,0,0,1.05-3.44,4.92,4.92,0,0,0-1.05-3.38,3.45,3.45,0,0,0-5.21,0A4.92,4.92,0,0,0,228.37,217.3Z"/><path class="cls-1" d="M267.68,214.38l-3.59-.65a5.57,5.57,0,0,1,2.08-3.21,7.62,7.62,0,0,1,4.4-1.05,9.43,9.43,0,0,1,3.95.63,4,4,0,0,1,1.83,1.59,8.24,8.24,0,0,1,.53,3.55l-.05,4.63a16.8,16.8,0,0,0,.19,2.91,8.77,8.77,0,0,0,.72,2h-3.92c-.11-.27-.23-.66-.38-1.18-.07-.23-.12-.39-.15-.46a7,7,0,0,1-2.17,1.48,6.17,6.17,0,0,1-2.46.49,5.09,5.09,0,0,1-3.65-1.25,4.46,4.46,0,0,1-.72-5.43,3.92,3.92,0,0,1,1.69-1.53,13.27,13.27,0,0,1,3.16-.92,23.1,23.1,0,0,0,3.85-1v-.4a2.05,2.05,0,0,0-.57-1.63,3.43,3.43,0,0,0-2.13-.48,2.84,2.84,0,0,0-1.65.41A3,3,0,0,0,267.68,214.38Zm5.31,3.21a23.4,23.4,0,0,1-2.42.61,7.55,7.55,0,0,0-2.15.69,1.65,1.65,0,0,0-.78,1.4,2,2,0,0,0,.62,1.44,2.17,2.17,0,0,0,1.58.6,3.43,3.43,0,0,0,2.05-.7,2.56,2.56,0,0,0,.94-1.31,8,8,0,0,0,.16-1.93Z"/><path class="cls-1" d="M301.25,220.51l4-.6a2.89,2.89,0,0,0,1,1.75,3.48,3.48,0,0,0,2.17.6,3.93,3.93,0,0,0,2.31-.56,1.26,1.26,0,0,0,.53-1.06,1.05,1.05,0,0,0-.29-.75,3.24,3.24,0,0,0-1.32-.52c-3.2-.7-5.22-1.35-6.08-1.93a3.87,3.87,0,0,1-1.78-3.37,4.16,4.16,0,0,1,1.54-3.27,7.15,7.15,0,0,1,4.77-1.33,8.3,8.3,0,0,1,4.57,1,5.07,5.07,0,0,1,2.05,3l-3.73.69a2.27,2.27,0,0,0-.91-1.34,3.33,3.33,0,0,0-1.91-.47,4.31,4.31,0,0,0-2.24.44.92.92,0,0,0-.45.8.89.89,0,0,0,.39.72,15,15,0,0,0,3.7,1.12,10.92,10.92,0,0,1,4.42,1.76,3.65,3.65,0,0,1,1.24,2.94,4.49,4.49,0,0,1-1.72,3.54,7.58,7.58,0,0,1-5.09,1.48,8.32,8.32,0,0,1-4.84-1.24A5.66,5.66,0,0,1,301.25,220.51Z"/><path class="cls-1" d="M347.43,209.81V213h-2.71v6a15,15,0,0,0,.08,2.13.87.87,0,0,0,.35.5,1.13,1.13,0,0,0,.67.2,5.16,5.16,0,0,0,1.59-.38l.34,3.07a7.77,7.77,0,0,1-3.13.59,5.14,5.14,0,0,1-1.93-.35,3,3,0,0,1-1.26-.93,3.67,3.67,0,0,1-.56-1.55,19.73,19.73,0,0,1-.13-2.79V213h-1.82v-3.16h1.82v-3l4-2.31v5.28Z"/></svg>