<svg id="Layer_1" data-name="Layer 1" xmlns="http://www.w3.org/2000/svg" viewBox="0 0 408.87 315.85"><defs><style>.cls-1{fill:#a2a2a2;}</style></defs><path class="cls-1" d="M378.17,89c.36,1,.88,2.63,1.2,3.63,3.26,10.48,7.89,19.33,16,27.12,9.09,8.75,13.28,20.29,13.34,32.89.17,42.07.27,84.15,0,126.23-.14,21.24-15.87,36.41-37.13,36.74-6.63.11-13.27.05-19.91,0-22.17-.12-37.42-15.17-37.88-37.42-.09-4.38,0-8.76,0-13.29a4,4,0,0,0-3.95-4H98.59a4,4,0,0,0-4,4c.15,6.34.51,12.6-.2,18.74-2,17.07-14.29,29.59-31.33,31.3a161.35,161.35,0,0,1-31,.12C13.35,313.43.29,298.41.17,278.67q-.39-61.41,0-122.83c.08-14.06,5.07-26.63,16-35.65,10.62-8.78,17.07-19.5,21.39-32.45,6.91-20.67,15-40.95,22.59-61.39C66.89,8.18,78.63,0,98.09,0h203.5c.36,0,8.56,0,8.92.08C328.29,2.19,335.39,14.73,340,20.75,340,20.75,375.62,82.06,378.17,89ZM204.09,244.75q83,0,166,0c14.85,0,22.6-7.62,22.64-22.26,0-22.17.16-44.33-.1-66.5-.06-5.08-.35-10.78-2.64-15.07-3.53-6.56-9-12.09-13.44-18.16-2.34-3.17-5.22-4.06-9.14-4.06q-154.09.16-308.21.09c-19.93,0-19.91,0-33.6,14.39-5.57,5.85-9,12.72-9.1,20.81-.19,24.27-.3,48.53.05,72.79.06,3.7,2.1,7.82,4.34,10.95,4.07,5.71,10.4,7.07,17.21,7.06Q121.09,244.69,204.09,244.75ZM294,15.83c-95.64.32-182.35.68-195.63.06-2.14-.1-9-.51-14.92,3.63C79.81,22.07,77.2,26.11,75,32.08q-12.21,32.7-24.35,65.4h0a3.9,3.9,0,0,0,3.65,5.26H359.56a4,4,0,0,0,3.7-5.34c-3.19-8.69-30.25-55.13-37.32-64.7C318.19,22.19,318,15.72,294,15.83Zm39.5,245a4,4,0,0,0-3.61,3.94c0,3.92,0,7.75,0,11.58a52.67,52.67,0,0,0,.26,6.29c1.05,8.46,8,16,16.5,16.51a235.8,235.8,0,0,0,29,0c8.09-.5,15.7-7.53,16.39-15.48a210.55,210.55,0,0,0,.24-21.92,4,4,0,0,0-5.13-3.76C369.85,263.39,351.72,259.33,333.52,260.84ZM21.81,258a3.94,3.94,0,0,0-5.37,3.63c-.1,7.33-.28,14.25.18,21.12a18.21,18.21,0,0,0,17,16.49,230.37,230.37,0,0,0,27.56,0c8.32-.53,14.73-5.37,16.45-13.43,1.44-6.73,1.4-13.78,1.68-21a4,4,0,0,0-3.94-4.12c-11.91,0-22.88-.05-33.86,0C34.85,260.7,28.28,260.55,21.81,258Z"/><path class="cls-1" d="M80.64,217.54c-10.19,0-20.38,0-30.57,0-7.21,0-10.22-2.77-10.29-9.8q-.18-20.62,0-41.25c.06-6.81,3-9.79,9.84-9.83q31.07-.17,62.11,0c7.08,0,10,3,10.07,10.12q.15,20.39,0,40.76c0,7.08-3,10-10.11,10C101.35,217.58,91,217.54,80.64,217.54ZM56.06,201.37h49.36V173.09H56.06Z"/><path class="cls-1" d="M325.38,217.54c-10.35,0-20.7.05-31.05,0-6.62,0-9.66-2.77-9.73-9.33q-.25-21.09,0-42.21c.07-6.28,3-9.27,9.33-9.31q31.53-.21,63.07,0c6.51,0,9.48,3.12,9.54,9.65q.19,20.85,0,41.72c-.07,6.52-3.14,9.44-9.62,9.49C346.41,217.6,335.9,217.54,325.38,217.54ZM301,173v28.42h49.17V173Z"/><path class="cls-1" d="M203.34,165.74c13.26,0,26.53-.05,39.79,0,7.82,0,10.39,2.61,10.47,10.53.08,7.44.1,14.88,0,22.32-.11,7.17-3,10-10.07,10.05q-40.27.06-80.55,0c-7.22,0-10.07-2.8-10.16-9.92-.1-7.93-.13-15.85,0-23.78.12-6.39,2.87-9.13,9.28-9.18C175.84,165.67,189.59,165.74,203.34,165.74Zm34.09,16.2H169V192.2h68.43Z"/></svg>