<svg id="Layer_11" data-name="Layer 11" xmlns="http://www.w3.org/2000/svg" viewBox="0 0 35.38 35.38"><defs><style>.cls-1{fill:#fff;}</style></defs><circle class="cls-1" cx="17.69" cy="17.69" r="17.69"/><path d="M487.47,223.73a1.22,1.22,0,1,0,1.22,1.22A1.22,1.22,0,0,0,487.47,223.73Z" transform="translate(-464.29 -212.73)"/><path d="M482.06,225.29a5.11,5.11,0,1,0,5.11,5.11A5.11,5.11,0,0,0,482.06,225.29Zm0,8.38a3.27,3.27,0,1,1,3.28-3.27A3.27,3.27,0,0,1,482.06,233.67Z" transform="translate(-464.29 -212.73)"/><path d="M486.12,240.77h-8.28a6.23,6.23,0,0,1-6.23-6.23v-8.28a6.23,6.23,0,0,1,6.23-6.23h8.28a6.24,6.24,0,0,1,6.23,6.23v8.28A6.24,6.24,0,0,1,486.12,240.77ZM477.84,222a4.28,4.28,0,0,0-4.28,4.28v8.28a4.28,4.28,0,0,0,4.28,4.28h8.28a4.28,4.28,0,0,0,4.28-4.28v-8.28a4.28,4.28,0,0,0-4.28-4.28Z" transform="translate(-464.29 -212.73)"/></svg>