<?xml version="1.0" encoding="utf-8"?>
<!-- Generator: Adobe Illustrator 24.2.0, SVG Export Plug-In . SVG Version: 6.00 Build 0)  -->
<svg version="1.1" id="Layer_1" xmlns="http://www.w3.org/2000/svg" xmlns:xlink="http://www.w3.org/1999/xlink" x="0px" y="0px"
	 viewBox="0 0 512 512" style="enable-background:new 0 0 512 512;" xml:space="preserve">
<style type="text/css">
	.st0{fill:#5A5A5A;}
</style>
<path class="st0" d="M197.2,265.6c-9.6,0-18.4,0-27.2,0c-13.2,0-26.3-0.1-39.5,0c-20.4,0.3-31.9-15.1-31.7-31.5
	c0.5-43.3,0.1-86.7,0.3-130c0-4.9-1.1-7.5-6.1-9.5c-17.4-6.9-26.5-25.3-22.7-44.1c3.6-17.9,20.1-30.7,39.3-30.4
	c17.7,0.2,33.7,13.8,37,31.4c3.5,18.7-6.6,36.9-24.5,43.8c-3.4,1.3-4.5,2.8-4.5,6.4c0.1,44.2,0.1,88.3,0.1,132.5
	c0,8.3,3.6,12.1,11.7,12.1c21.2,0.1,42.3,0,63.5,0c1.1,0,2.3-0.1,4-0.3c0.1-1.8,0.2-3.6,0.2-5.4c0-46.2,0-92.3,0.1-138.5
	c0-4-1.3-5.7-5-7.1c-18.9-7.5-28.6-27.5-23.1-47c5.2-18.4,24.7-30.9,43.2-27.7c20.3,3.5,34.6,20.8,33.1,41.1
	c-1.2,16.2-9.8,27.7-25,33.8c-3.7,1.5-4.7,3.2-4.6,6.9c0.1,46.2,0.1,92.3,0,138.5c0,4.2,0.9,5.8,5.5,5.8c23-0.2,46-0.2,69,0
	c4,0,5.5-1,5.5-5.3c-0.1-46.5-0.1-93,0-139.5c0-3.7-1.4-5.1-4.7-6.4c-17.2-6.6-27.8-24.9-24.7-41.8c3.6-19.4,18.7-33,36.8-33.4
	c19.7-0.4,35.7,11.9,40,30.9c4.1,18.1-6.1,37.2-23.8,44.1c-3.7,1.4-5,3.1-4.9,7.1c0.2,46.2,0.1,92.3,0.1,138.5c0,1.6,0,3.3,0,5.3
	c26.5,0,52.6,0,79.5,0c0-2.1,0-4.2,0-6.3c0-45.5-0.1-91,0.1-136.5c0-4.4-1-6.6-5.5-8.3c-18.6-7.4-28.1-27.4-22.6-46.7
	c5.1-18.2,24.1-30.6,42.7-27.8c19.7,2.9,34.2,19.9,33.8,39.7c-0.3,15.5-10.3,29.7-25.1,35.3c-3.7,1.4-4.7,3.2-4.7,6.9
	c0.1,102.5,0.1,205,0,307.5c0,3.6,0.9,5.5,4.6,6.9c16.8,6.3,27.6,24.3,24.9,40.7c-3.1,19.5-18,33.7-35.9,34.5
	c-19.7,0.8-35.8-10.8-40.6-29.4c-5-19.2,5.1-38.6,24.2-46c3-1.1,4.1-2.4,4.1-5.6c-0.1-47-0.1-94-0.1-141c0-1.1-0.1-2.3-0.2-3.8
	c-26.2,0-52.3,0-79,0c-0.1,1.5-0.2,3.1-0.2,4.7c0,46.5,0,93-0.1,139.5c0,3.5,1,5.1,4.4,6.4c19,7.2,28.9,27.1,23.7,46.7
	c-5.1,18.8-24.4,31.5-43.3,28.3c-20.3-3.5-34.7-20.7-33.1-41.1c1.2-16.4,10-27.9,25.4-34c3.2-1.3,4.2-2.9,4.2-6.2
	c-0.1-46.5-0.1-93,0-139.5c0-4.2-1.3-5.3-5.4-5.3c-23,0.2-46,0.2-69,0c-4.6,0-5.6,1.5-5.5,5.7c0.1,46.2,0.1,92.3,0,138.5
	c0,3.6,0.9,5.5,4.6,6.9c17.2,6.4,27.9,24.8,24.7,41.7c-3.6,19.4-18.6,33.1-36.7,33.5c-19.7,0.4-35.8-11.9-40-30.8
	c-4.1-18.1,5.9-37.1,23.7-44.1c4-1.6,5-3.6,5-7.6c-0.1-45.8-0.1-91.7-0.1-137.5C197.2,270,197.2,268.2,197.2,265.6z M128.2,58.9
	c-0.1-11-9.1-20-20-20c-10.8,0-20,9.2-20.1,20.1c-0.1,11.1,9.3,20.3,20.4,20.2C119.5,79,128.3,70,128.2,58.9z M186.7,59.2
	c0.1,11,9.1,20,20.1,19.9c10.8,0,20.1-9.2,20.1-20c0.1-10.9-9.6-20.5-20.5-20.2C195.5,39.1,186.7,48.2,186.7,59.2z M325.3,59
	c0-11-9-20.1-19.9-20.1c-10.8-0.1-20.1,9.1-20.3,19.9c-0.2,10.9,9.3,20.4,20.3,20.3C316.3,79.1,325.3,70,325.3,59z M207,432.8
	c-10.9-0.1-20.1,8.8-20.2,19.8c-0.1,11.2,9,20.5,20.1,20.5c10.8,0,20-9.3,20.1-20.1C227,442.3,217.8,433,207,432.8z M325.3,453.3
	c0.1-11.1-8.6-20.2-19.6-20.4c-11.1-0.2-20.5,9-20.6,20c-0.1,10.8,9.2,20.1,20,20.2C315.9,473.3,325.1,464.2,325.3,453.3z M383.8,59
	c0,11.1,8.8,20.1,19.8,20.1c11.1,0.1,20.4-9.3,20.3-20.3c-0.2-10.9-9.4-20-20.2-19.9C392.7,39,383.8,48,383.8,59z M383.8,453.1
	c0,11,9.1,20.1,20,20c10.8,0,20-9.2,20.1-20.1c0.1-11-9.3-20.3-20.4-20.2C392.5,433,383.7,442,383.8,453.1z"/>
</svg>
