<svg id="Layer_11" data-name="Layer 11" xmlns="http://www.w3.org/2000/svg" viewBox="0 0 199.6 111.32"><defs><style>.cls-1{fill:#f2d910;}.cls-2{opacity:0.3;}</style></defs><path class="cls-1" d="M512.25,294.6a21.73,21.73,0,0,0,1.1,1.89c-4.2-10.07-.39-20.09,8.26-24.62s19-2,24.94,7.22q-.42-1-.93-2c-5.53-10.54-17.48-15.17-26.69-10.34S506.72,284.06,512.25,294.6Z" transform="translate(-351.98 -233.54)"/><path class="cls-1" d="M352,293.31s25.29-49.38,79.26-42.73,93,23.33,120.34-.1c0,0-17.1,16.62-107.14-14.32,0,0-42.24-12.92-70.19,18.61C374.25,254.77,358.61,271.61,352,293.31Z" transform="translate(-351.98 -233.54)"/><path d="M425.21,288.51a8.38,8.38,0,0,1-.73,3.77,4.93,4.93,0,0,1-2.4,2.25,13.57,13.57,0,0,1-4.34,1.06,64,64,0,0,1-6.58.28,60.8,60.8,0,0,1-6.11-.28,20,20,0,0,1-4.89-1,7.68,7.68,0,0,1-3.25-2.08,5.1,5.1,0,0,1-1.17-3.48v-20.1a9.38,9.38,0,0,1,.73-4,5.08,5.08,0,0,1,2.58-2.43,15.62,15.62,0,0,1,5-1.21q3.12-.31,7.92-.32a54,54,0,0,1,6.41.32,14.89,14.89,0,0,1,4.07,1,4.71,4.71,0,0,1,2.14,1.69,4.41,4.41,0,0,1,.63,2.36V272H415.06v-1.53a3.17,3.17,0,0,0-.26-1.34,3.48,3.48,0,0,0-.78-1.07l-7.24-2.76V290a2.23,2.23,0,0,0,1.11,1.88,5.85,5.85,0,0,0,3.31.76A5.21,5.21,0,0,0,414,292a2.18,2.18,0,0,0,1-2v-6.16h10.15Z" transform="translate(-351.98 -233.54)"/><path d="M449.84,295.4,449.6,294a3.81,3.81,0,0,0-.51-1.41,5.91,5.91,0,0,0-1-1.18l-8.79-7.71L437.1,295.4H426.34l7.8-34.45H452.8l7.75,34.45Zm-6.24-30.51-4.2,17.3h8.18Z" transform="translate(-351.98 -233.54)"/><path d="M483.22,295.4a4.54,4.54,0,0,1-1-1.83A9.74,9.74,0,0,1,482,291v-2.45a5.43,5.43,0,0,0-2.4-4.18l-6.95-6v17H462V261H476.4a66.24,66.24,0,0,1,8.13.4,15.44,15.44,0,0,1,4.94,1.29,4.94,4.94,0,0,1,2.44,2.37,9,9,0,0,1,.66,3.65v3.43a7.28,7.28,0,0,1-.63,3,8,8,0,0,1-1.74,2.44,8.33,8.33,0,0,1-2.56,1.67,8.65,8.65,0,0,1-3.15.66c2.94.25,5,.86,6.25,1.83a4.54,4.54,0,0,1,1.83,3.71V291a8.05,8.05,0,0,0,1.27,4.37ZM482,271.24a2.91,2.91,0,0,0-1.27-2.3c-1.82-1.35-8.08-4.05-8.08-4.05v12.55h3.29a17.73,17.73,0,0,0,3-.21,4.75,4.75,0,0,0,1.85-.68,2.36,2.36,0,0,0,.94-1.24,6,6,0,0,0,.26-1.86Z" transform="translate(-351.98 -233.54)"/><path d="M406.43,334.41V322.8L395.76,300h10.43l4.66,10.34-.38,10.9L419.76,300h10L419.24,322.8v11.61Z" transform="translate(-351.98 -233.54)"/><path d="M496,334.41V300h15.18a43.82,43.82,0,0,1,6.86.45,9.19,9.19,0,0,1,4.44,1.8,7.4,7.4,0,0,1,2.38,3.86,24.71,24.71,0,0,1,.7,6.53v8.93a30.35,30.35,0,0,1-.49,5.92,7.82,7.82,0,0,1-2,4,9.11,9.11,0,0,1-4.37,2.26,32.32,32.32,0,0,1-7.5.7ZM514.91,310a3.16,3.16,0,0,0-.94-2.49l-7.43-4v25.92H509q5.87,0,5.87-2.73Z" transform="translate(-351.98 -233.54)"/><path d="M449.85,334.41l-.24-1.36a3.88,3.88,0,0,0-.51-1.41,5.91,5.91,0,0,0-1-1.18l-8.79-7.71-2.21,11.66H426.35l7.8-34.45h18.66l7.75,34.45Zm-6.24-30.51-4.2,17.3h8.18Z" transform="translate(-351.98 -233.54)"/><path d="M483.22,334.41a4.54,4.54,0,0,1-1-1.83A9.74,9.74,0,0,1,482,330v-2.45a5.43,5.43,0,0,0-2.4-4.18l-6.95-6v17H462V300H476.4a66.24,66.24,0,0,1,8.13.4,15.71,15.71,0,0,1,4.94,1.29,5,5,0,0,1,2.44,2.37,9,9,0,0,1,.66,3.65v3.43a7.21,7.21,0,0,1-.63,3,8,8,0,0,1-1.74,2.44,8.15,8.15,0,0,1-2.56,1.67,8.65,8.65,0,0,1-3.15.66c2.94.25,5,.86,6.25,1.84a4.52,4.52,0,0,1,1.83,3.71V330a8,8,0,0,0,1.27,4.37ZM482,310.25a2.91,2.91,0,0,0-1.27-2.3c-1.82-1.35-8.08-4.05-8.08-4.05v12.56h3.29a16.63,16.63,0,0,0,3-.22,4.59,4.59,0,0,0,1.85-.68,2.36,2.36,0,0,0,.94-1.24,6,6,0,0,0,.26-1.86Z" transform="translate(-351.98 -233.54)"/><g class="cls-2"><path d="M410.26,341.9v-1.3h3.35v3.07a4.3,4.3,0,0,1-1.41.83,5.18,5.18,0,0,1-1.88.36,4.2,4.2,0,0,1-2.11-.51,3.17,3.17,0,0,1-1.35-1.45,4.66,4.66,0,0,1-.45-2,4.42,4.42,0,0,1,.5-2.14,3.41,3.41,0,0,1,1.48-1.43,3.92,3.92,0,0,1,1.84-.39,3.59,3.59,0,0,1,2.24.61,2.68,2.68,0,0,1,1,1.66l-1.54.29a1.66,1.66,0,0,0-.62-.9,1.84,1.84,0,0,0-1.12-.33,2.11,2.11,0,0,0-1.62.65,2.73,2.73,0,0,0-.6,1.92,3,3,0,0,0,.61,2.06,2.06,2.06,0,0,0,1.6.68,2.66,2.66,0,0,0,1-.19,3.52,3.52,0,0,0,.84-.46v-1Z" transform="translate(-351.98 -233.54)"/><path d="M422.84,341.86a3,3,0,0,1,.36-1.42,2.54,2.54,0,0,1,1-1.05,3,3,0,0,1,1.49-.37,2.78,2.78,0,0,1,2.07.83,3.07,3.07,0,0,1,0,4.17,2.74,2.74,0,0,1-2,.84,3.31,3.31,0,0,1-1.47-.35,2.43,2.43,0,0,1-1.06-1A3.39,3.39,0,0,1,422.84,341.86Zm1.52.08a1.86,1.86,0,0,0,.39,1.27,1.23,1.23,0,0,0,1,.44,1.22,1.22,0,0,0,1-.44,1.87,1.87,0,0,0,.39-1.28,1.83,1.83,0,0,0-.39-1.26,1.22,1.22,0,0,0-1-.44,1.23,1.23,0,0,0-1,.44A1.86,1.86,0,0,0,424.36,341.94Z" transform="translate(-351.98 -233.54)"/><path d="M437.91,344.73V337h1.47v7.7Z" transform="translate(-351.98 -233.54)"/><path d="M454.16,344.73h-1.37v-.82a2.17,2.17,0,0,1-.81.71,2,2,0,0,1-.93.24,2.12,2.12,0,0,1-1.65-.78,3.15,3.15,0,0,1-.69-2.16,3.09,3.09,0,0,1,.67-2.16,2.18,2.18,0,0,1,1.69-.74,2.1,2.1,0,0,1,1.62.78V337h1.47Zm-3.94-2.91a2.46,2.46,0,0,0,.25,1.29,1.11,1.11,0,0,0,1,.58,1.07,1.07,0,0,0,.86-.43,2,2,0,0,0,.36-1.3,2.18,2.18,0,0,0-.35-1.38,1.07,1.07,0,0,0-.88-.43,1.1,1.1,0,0,0-.88.42A1.88,1.88,0,0,0,450.22,341.82Z" transform="translate(-351.98 -233.54)"/><path d="M468.71,341.9l1.5.48a3.36,3.36,0,0,1-1.15,1.87,3.63,3.63,0,0,1-4.57-.44,4,4,0,0,1-1-2.86,4.17,4.17,0,0,1,1-3,3.4,3.4,0,0,1,2.61-1.07,3.17,3.17,0,0,1,2.29.84,2.91,2.91,0,0,1,.79,1.42l-1.54.37a1.6,1.6,0,0,0-1.62-1.3,1.75,1.75,0,0,0-1.39.62,3,3,0,0,0-.53,2,3.23,3.23,0,0,0,.52,2.08,1.69,1.69,0,0,0,1.37.62,1.54,1.54,0,0,0,1.06-.39A2.29,2.29,0,0,0,468.71,341.9Z" transform="translate(-351.98 -233.54)"/><path d="M479.34,341.86a2.92,2.92,0,0,1,.37-1.42,2.46,2.46,0,0,1,1-1.05,3,3,0,0,1,1.49-.37,2.76,2.76,0,0,1,2.07.83,2.82,2.82,0,0,1,.81,2.07,2.87,2.87,0,0,1-.81,2.1,2.76,2.76,0,0,1-2.06.84,3.24,3.24,0,0,1-1.46-.35,2.33,2.33,0,0,1-1.06-1A3.27,3.27,0,0,1,479.34,341.86Zm1.52.08a1.86,1.86,0,0,0,.39,1.27,1.23,1.23,0,0,0,1,.44,1.22,1.22,0,0,0,1-.44,1.87,1.87,0,0,0,.4-1.28,1.83,1.83,0,0,0-.4-1.26,1.22,1.22,0,0,0-1-.44,1.23,1.23,0,0,0-1,.44A1.86,1.86,0,0,0,480.86,341.94Z" transform="translate(-351.98 -233.54)"/><path d="M495.51,340.85l-1.34-.24a2.08,2.08,0,0,1,.78-1.2,2.84,2.84,0,0,1,1.64-.39,3.43,3.43,0,0,1,1.47.24,1.43,1.43,0,0,1,.68.59,3.05,3.05,0,0,1,.2,1.32l0,1.73A6.68,6.68,0,0,0,499,344a3.26,3.26,0,0,0,.27.75H497.8a3.34,3.34,0,0,1-.14-.44l-.06-.17a2.48,2.48,0,0,1-.81.55,2.17,2.17,0,0,1-.92.19,1.9,1.9,0,0,1-1.35-.47,1.53,1.53,0,0,1-.5-1.18,1.61,1.61,0,0,1,.22-.85,1.58,1.58,0,0,1,.64-.56,4.58,4.58,0,0,1,1.17-.35,8.54,8.54,0,0,0,1.44-.36v-.15a.79.79,0,0,0-.21-.61,1.29,1.29,0,0,0-.8-.18,1.08,1.08,0,0,0-.61.16A1,1,0,0,0,495.51,340.85Zm2,1.2c-.19.06-.49.14-.9.23a2.76,2.76,0,0,0-.81.25.62.62,0,0,0-.28.52.7.7,0,0,0,.23.54.81.81,0,0,0,.59.23,1.26,1.26,0,0,0,.76-.27.9.9,0,0,0,.35-.49,2.75,2.75,0,0,0,.06-.72Z" transform="translate(-351.98 -233.54)"/><path d="M508,343.14l1.48-.23a1.1,1.1,0,0,0,.39.66,1.28,1.28,0,0,0,.81.22,1.48,1.48,0,0,0,.86-.21.47.47,0,0,0,.19-.39.37.37,0,0,0-.1-.28,1.22,1.22,0,0,0-.5-.2,7.76,7.76,0,0,1-2.26-.72,1.43,1.43,0,0,1-.66-1.25,1.54,1.54,0,0,1,.57-1.22,2.65,2.65,0,0,1,1.77-.5,3.09,3.09,0,0,1,1.71.38,1.86,1.86,0,0,1,.76,1.1l-1.39.26a.83.83,0,0,0-.34-.5,1.18,1.18,0,0,0-.71-.17,1.55,1.55,0,0,0-.83.16.33.33,0,0,0-.17.3.36.36,0,0,0,.14.27,6.42,6.42,0,0,0,1.38.41,4.09,4.09,0,0,1,1.65.66,1.36,1.36,0,0,1,.46,1.1,1.65,1.65,0,0,1-.64,1.31,2.81,2.81,0,0,1-1.89.56,3.11,3.11,0,0,1-1.81-.47A2.12,2.12,0,0,1,508,343.14Z" transform="translate(-351.98 -233.54)"/><path d="M525.23,339.15v1.18h-1v2.25a5.28,5.28,0,0,0,0,.79.36.36,0,0,0,.13.19.43.43,0,0,0,.25.07,1.77,1.77,0,0,0,.6-.14l.12,1.15a3,3,0,0,1-1.16.22,1.81,1.81,0,0,1-.72-.14,1,1,0,0,1-.47-.34,1.46,1.46,0,0,1-.21-.58,7.25,7.25,0,0,1,0-1v-2.43h-.68v-1.18h.68V338l1.48-.86v2Z" transform="translate(-351.98 -233.54)"/></g></svg>