<?xml version="1.0" encoding="utf-8"?>
<!-- Generator: Adobe Illustrator 26.3.0, SVG Export Plug-In . SVG Version: 6.00 Build 0)  -->
<svg version="1.1" id="Layer_1" xmlns="http://www.w3.org/2000/svg" xmlns:xlink="http://www.w3.org/1999/xlink" x="0px" y="0px"
	 viewBox="0 0 512 512" style="enable-background:new 0 0 512 512;" xml:space="preserve">
<style type="text/css">
	.st0{fill:#A2A2A2;}
</style>
<path class="st0" d="M512,418c-0.6,5-3.4,6-8.1,6c-31.2-0.2-62.3-0.1-93.5-0.1c-2,0-3.9,0-6.3,0c1.2-7.2,2.4-13.7,3.4-20.2
	c2.9-19.9,2.6-39.8-0.9-59.7c-0.8-4.5,0.1-6.6,4.7-7.8c26.3-7.3,52.5-14.7,78.6-22.3c4.6-1.3,6.8-0.7,8.3,4.3
	c6.9,22.7,11.3,45.8,12.7,69.5c0.1,2.5,0.7,4.9,1.1,7.3C512,402.7,512,410.3,512,418z"/>
<path class="st0" d="M0,367c0.7-6.7,1.4-13.5,2.2-20.2c0.9-6.7,2-13.5,3.1-20.2c0.5-3.1,2.3-4.2,5.3-3.4c4.3,1.1,8.6,2.3,13,3.3
	c4.1,0.9,4.6,2.9,3.6,6.9c-3.1,11.7-6.8,23.4-8.2,35.3c-2,16.3-2.2,32.8-3.2,49.2c-0.2,2.6,1.2,6.2-3.6,6c-3.5-0.1-7.9,1.5-8.3-4.8
	c-0.6-8.3-1.8-16.5-2.8-24.7c-0.3-2.4-0.7-4.9-1.1-7.3C0,380.3,0,373.7,0,367z"/>
<path class="st0" d="M226.8,420.7c-28.2,0.2-48.7-28.3-37.9-54.5c8.3-20.3,18.7-39.7,28.3-59.4c34.3-70.3,68.7-140.5,103-210.7
	c0.6-1.2,1.2-2.4,1.8-3.6c1.7-3.5,4.4-5.2,8.1-4c3.7,1.3,4.9,4.2,4.1,8c-2.2,9.9-4.4,19.8-6.7,29.7
	c-19.9,86.3-39.9,172.6-59.6,258.9c-4.3,18.7-14.5,31-33.6,35.2c-0.6,0.1-1.3,0.3-2,0.3C230.4,420.8,228.6,420.7,226.8,420.7z
	 M207.8,379.3c0.1,11.3,9.6,20.7,20.9,20.4c11.2-0.2,20.3-9.5,20.4-20.5c0.1-11.3-9.3-20.6-20.7-20.5
	C216.9,358.7,207.7,367.8,207.8,379.3z"/>
<path class="st0" d="M485.8,286.3c-1.6,1-3.1,2.3-4.9,3c-18.6,7.6-37.3,15-56,22.5c-6.2,2.5-12.4,4.9-18.5,7.5
	c-3.5,1.5-5.4,0.6-6.7-3.2c-9.5-28.8-24.9-54-46.3-75.5c-2.4-2.5-2.3-4.3-0.2-6.8c14.5-17.4,28.9-34.9,43.3-52.4
	c2.1-2.6,4-2.8,6.7-0.7c35.2,27.4,62.1,61.5,81.1,101.8C484.8,283.5,485.1,284.5,485.8,286.3z"/>
<path class="st0" d="M224.7,177.8c0.2,7.8,0.2,7.8-6.9,7.9c-31.7,0.4-61.4,8.6-89.1,23.8c-4.4,2.4-6.5,1.9-9.1-2.2
	c-5.6-8.9-11.6-17.5-17.6-26c-2.4-3.4-1.9-5.4,1.4-7.7c31.8-22.7,66.8-37.6,105.5-43.4c12.1-1.8,12.3-1.8,13.3,10
	C223.2,152.8,223.9,165.6,224.7,177.8z"/>
<path class="st0" d="M80.2,193.4c1.1,0.8,2.3,1.4,3.1,2.3c6.9,7.9,13.6,16,20.5,23.9c2.4,2.7,1.7,4.5-0.9,6.5
	C75.3,247,54.2,273.2,39,304.3c-1.7,3.4-3.6,4.3-7.1,2.8c-4.2-1.9-8.7-3.4-13-5.1c-6.5-2.5-6.6-2.6-4.3-8.9
	c12.4-34.7,31.2-65.4,56.9-91.8c1.9-1.9,3.7-3.8,5.7-5.6C78,194.8,79,194.3,80.2,193.4z"/>
<path class="st0" d="M338.6,143.3c12.4,6.3,24.3,12.3,36.2,18.6c0.9,0.5,1.6,3.7,0.9,4.8c-12.1,18.7-24.3,37.4-36.7,55.9
	c-0.7,1-3.2,0.8-4.8,1.1c-0.2,0-0.5-0.4-0.8-0.6c-11.8-8-11.7-8-8.4-22c4.2-17.8,8.2-35.6,12.3-53.4
	C337.4,146.6,337.8,145.5,338.6,143.3z"/>
<path class="st0" d="M288,129.4c-2.5,5.1-4.3,8.8-6.1,12.5c-7,14.3-14.2,28.6-20.9,43c-1.7,3.7-3.7,4.3-7.3,3.7
	c-9.6-1.8-9.8-1.8-9.4-11.7c0.5-15.1,1.2-30.3,2.2-45.4c0.1-1.5,2.3-4.3,3.4-4.2C262.2,127.7,274.6,128.6,288,129.4z"/>
</svg>
