<?xml version="1.0" encoding="utf-8"?>
<!-- Generator: Adobe Illustrator 24.2.0, SVG Export Plug-In . SVG Version: 6.00 Build 0)  -->
<svg version="1.1" id="Layer_1" xmlns="http://www.w3.org/2000/svg" xmlns:xlink="http://www.w3.org/1999/xlink" x="0px" y="0px"
	 viewBox="0 0 512 512" style="enable-background:new 0 0 512 512;" xml:space="preserve">
<style type="text/css">
	.st0{fill:#5A5A5A;}
</style>
<path class="st0" d="M512,305c-0.8,2.3-1.5,4.7-2.3,7c-3.5,9.4-11.7,15.3-20.8,15.1c-4.4-0.1-7.1-2.4-7.4-6.5
	c-0.3-3.9,2-6.5,6.1-7.3c7.1-1.5,9.6-4.3,9.7-11.6c0.1-8.7-0.1-17.3,0.1-26c0.1-3.4-0.9-4.9-4.5-4.7c-4,0.2-8,0.1-12,0
	c-4.5-0.2-7.6-3.1-7.5-7c0-3.9,3.1-6.7,7.6-6.9c2.6-0.1,5.2,0,7.9,0c0.2-0.5,0.4-1,0.7-1.5c-2.3-1.5-4.5-3.3-7-4.5
	c-16-7.3-33-11.4-50.2-14.3c-27.8-4.8-55.9-6.1-84.1-6c-51.3,0.2-102.7,0.1-154,0c-6.1,0-8.7-1.9-9.2-6.1c-0.4-4.6,2.1-7.6,7-7.7
	c6.8-0.2,13.7-0.2,20.5,0c3.2,0.1,4.5-1.1,4.5-4.4c-0.1-11.3,0-22.7-0.2-34c0-1.3-1.7-3.7-2.7-3.7c-19.9,0.3-40-1.9-59.7,2.6
	c-4.4,1-6.7,2.8-7.6,7.5c-1.9,10.2-4.4,20.4-6.9,31.8c5.2,0,9.6,0,14,0c2.2,0,4.3-0.1,6.5,0.1c3.9,0.3,6.1,2.7,6.2,6.5
	c0.2,4.1-2,6.8-6.1,7.2c-20.7,1.7-39.7-1-54.5-18.1c-8.3-9.6-8.9-9.2-20.3-4.2c-14.1,6.1-28.9,8.7-44,10.3
	c-6.1,0.7-12.2,1.3-18.3,2.2c-6,0.9-8.7,4.1-8.8,10.1c0,3,0,6,0,9.5c3.1,0.1,5.9,0.2,8.6,0.4c4.4,0.3,7.7,3.4,7.3,7.2
	c-0.5,4.1-2.9,6.5-7.3,6.7c-8.6,0.4-8.6,0.5-8.6,8.9c0,4.8-0.1,9.7,0,14.5c0.2,6.8,3.3,12.3,9.5,14.6c10.2,3.7,20.8,6.4,32,9.8
	c1.8-18,9.7-31.6,25.1-40.2c9.5-5.3,19.9-6.8,30.5-4.8c25.7,4.9,38.9,23.6,38.8,54.9c72.8,0,145.6,0,218.3,0
	c0.4-5.8,0.2-11.5,1.2-17c4.1-23.7,24.1-39.3,49.1-38.5c22,0.7,41,18.5,43.8,41.2c2.6,21.4-9.4,41.7-29.2,49.5
	c-20.3,8-42.9,1.5-55.6-16.2c-2.4-3.4-4.8-4.7-8.9-4.7c-72.8,0.1-145.6,0.1-218.5,0c-4.1,0-6.5,1.2-9,4.6
	c-11.1,15.2-26.5,21.6-44.9,19.1c-17.1-2.3-29.3-12.1-36.3-27.8c-1.6-3.6-3.6-5.3-7.3-6.3c-9.3-2.4-18.5-5.3-27.8-7.9
	c-13-3.6-21.5-11.6-24.4-25c-0.1-0.6-0.6-1.1-1-1.7c0-18.3,0-36.7,0-55c0.5-1.2,0.9-2.4,1.4-3.7c3-8.5,8.8-14.1,17.7-15.9
	c5.5-1.1,11.2-1.7,16.8-2.2c19.5-1.8,38.4-5.8,55.9-15.2c10.5-5.7,21.4-10.8,32.1-16.1c16.1-8.1,33.1-12.8,51.3-12.9
	c25.1-0.1,50.3-0.1,75.4-0.1c22.4,0,42.8,6.7,61.6,18.9c18,11.7,36.2,23.1,54.4,34.5c2,1.3,4.5,2.4,6.8,2.7
	c17,1.6,34.2,2.4,51.2,4.4c21.5,2.6,42.5,7.6,62.5,16.2c12.1,5.2,19.9,14.1,23.4,26.8c0.5,1.9,1.1,3.8,1.6,5.7
	C512,281.7,512,293.3,512,305z M341.2,216.7c0.2-0.5,0.3-1,0.5-1.5c-15.8-9.8-31.3-20.1-47.4-29.3c-18.5-10.6-39.1-11.8-60-11.1
	c-3.6,0.1-3.4,2.4-3.4,4.8c0,10.5,0.2,21-0.1,31.5c-0.2,5,1.6,6.1,6.3,6.1c33.1-0.2,66.2-0.1,99.3-0.1
	C338,217,339.6,216.8,341.2,216.7z M136.5,304.8c0.4-18.2-14-33.2-32.3-33.8c-17.4-0.5-33,14.3-33.5,31.6
	c-0.5,18.6,13.8,34,32.1,34.5C120.9,337.6,136.1,323,136.5,304.8z M383.5,303.9c-0.1,18.3,14.7,33.2,32.8,33.2
	c17.9,0,32.8-14.8,32.9-32.7c0.1-18.3-14.4-33.2-32.6-33.5C398.7,270.7,383.6,285.7,383.5,303.9z M125.3,211c0.5-0.2,1-0.4,1.4-0.6
	c1.8-7.9,3.5-15.8,5.5-24.9c-7.9,3.9-14.5,7.3-20.3,10.2C116.5,200.9,120.9,205.9,125.3,211z"/>
<path class="st0" d="M259.6,295c-27.3,0-54.6,0-81.9,0c-6,0-8.8-2.4-8.7-7.1c0.1-3.9,2.1-6.2,6-6.7c0.8-0.1,1.7-0.1,2.5-0.1
	c54.9,0,109.9,0,164.8,0c3.6,0,6.7,0.6,8.3,4.2c2.1,5-1.2,9.6-7.1,9.7c-13.8,0.1-27.6,0.1-41.5,0.1C287.9,295,273.7,295,259.6,295z"
	/>
<path class="st0" d="M116.4,296.8c0.2,6-13.8,20.4-18.4,19.8c-2.2-0.3-5-1.9-5.9-3.6c-0.9-2-0.8-5.7,0.5-7.3
	c3.7-4.6,8-8.9,12.6-12.7c1.6-1.3,5.1-1.4,7.2-0.6C114.4,293.1,115.6,295.8,116.4,296.8z"/>
<path class="st0" d="M429.3,310.7c-1.2,1.5-2.2,4.2-4.1,4.9c-2.1,0.8-5.7,0.9-7.3-0.4c-4.6-3.7-8.8-8.1-12.8-12.5
	c-2.4-2.6-2.2-5.9,0.1-8.7c2.2-2.7,5.5-4.2,8.4-1.8c5.2,4.4,9.8,9.4,14.5,14.2C428.8,307.2,428.8,308.6,429.3,310.7z"/>
</svg>
