<svg id="Layer_11" data-name="Layer 11" xmlns="http://www.w3.org/2000/svg" viewBox="0 0 35.38 35.38"><defs><style>.cls-1{fill:#fff;}.cls-2{fill-rule:evenodd;}</style></defs><circle class="cls-1" cx="17.69" cy="17.69" r="17.69"/><path d="M7.43,28,8.9,22.47a10.23,10.23,0,1,1,4.06,4Zm5.8-3.55.35.21a8.24,8.24,0,1,0-2.83-2.8l.22.35-.83,3.07Z" transform="translate(0 0)"/><path class="cls-2" d="M21.57,19a1.72,1.72,0,0,0-1.46-.33c-.37.15-.61.75-.86,1.05a.37.37,0,0,1-.47.1A6.62,6.62,0,0,1,15.49,17a.41.41,0,0,1,0-.55,2.15,2.15,0,0,0,.6-1,2.06,2.06,0,0,0-.27-1.15A2.71,2.71,0,0,0,15,13a1.17,1.17,0,0,0-1.27.18,2.59,2.59,0,0,0-.88,2,2.82,2.82,0,0,0,.08.65,5.39,5.39,0,0,0,.61,1.42c.2.34.42.66.65,1A9.92,9.92,0,0,0,17,20.9a9,9,0,0,0,1.74.83,3.93,3.93,0,0,0,2,.32,2.49,2.49,0,0,0,1.84-1.37,1.21,1.21,0,0,0,.09-.7C22.61,19.5,22,19.21,21.57,19Z" transform="translate(0 0)"/></svg>